
<svg xmlns="http://www.w3.org/2000/svg" width="1000" height="1000" viewBox="0 0 500 500">
  <defs>
    <style>
      .cls-1 {
        fill: #fff;
        fill-rule: evenodd;
      }
    </style>
  </defs>
  <path id="Color_Fill_1" data-name="Color Fill 1" class="cls-1" d="M146,153c37.324-.852,54.254,8.223,72,26,2.566,2.57,16.328,16.569,14,19-2.742,2.534-24.068,10.843-26,10-3.469-4.764-3.531-12.334-6-18-7.8-17.906-31.179-44.056-60-30-6.593,3.215-8.389,8-13,13-0.476,6.2-1.455,11.408,1,17,4.684,10.667,27.214,25.67,38,31v1H113c-1.934-5.807-6.391-10.539-8-17-6.15-24.7,9.949-40.542,23-47C133.224,155.415,141.136,156.182,146,153Zm106,4c38.767-.741,102.757-5.069,125,11,10.758,7.772,18.879,30.044,11,47-0.872,1.877-1.33,6.1-3,7H347v-2c4.016-5.067,4.883-18.479,3-26-7.194-28.732-20.182-32.69-56-32v60H255c-0.631-1.754-.193-0.971-1-2C258.542,206.609,252.535,171.945,252,157ZM69,244h7a18.313,18.313,0,0,1,1,6c-3.017,1.935-.437,1.507-2,4-1.585-2.733-.9-2.514-5-3-0.2,2.328-.193,2.826-1,4V244Zm25,0c2.9-.06,5.469-0.048,7,1H95c0.372,2.076.242,1.924,1,3,1.008,0.693,4,1.287,5,2H95v4c2.9-.06,5.468-0.048,7,1H94V244Zm23,0c2.151,1.769,2.571,3.408,3,7h-1v-2A11.725,11.725,0,0,1,117,244Zm8,0c1.41,2.5-.179,4.813-1,8h-1v-3A11.725,11.725,0,0,0,125,244Zm17,0h2v11h-1v-1C141.663,252.008,141.9,247.493,142,244Zm19,0c2.9-.06,5.468-0.048,7,1h-6v4c2.532,0.074,3.716.12,5,1h-5v4c2.72-.007,4.6.039,6,1h-7V244Zm23,0c0.752,1.073.6,0.946,1,3h-1v-3Zm7,0c1.829,1.568,1.4.882,2,4C190.326,246.641,189.486,248.208,191,244Zm7,0c1.217,2.046.576,4.077-1,6v-4C197.8,244.979,197.355,245.726,198,244Zm38,0c3.256,1.538,4.474,4.789,5,9h-1c-1.549-1.049-4.085-1.031-7-1v-2C234.228,248.476,235.158,245.823,236,244Zm22,0c3.2,1.167,4.006,2.733,5,6h-1c-1.35-1.624-.64-1.121-3-2,0.06,2.9.048,5.468-1,7V244Zm8,0c1.438,2.15,1.113,7.308,1,11h-1c-0.961-1.766-1.257-1.68-2-4C266.584,249.5,266.115,248,266,244Zm18,0h8c1.372,2.542,1.917,3.5,2,8a18.068,18.068,0,0,0-4,3h-6V244Zm43,0c2.1,2.434,1.87,5.391,5,7,0.631-1.754.193-.971,1-2v3c-1.5,1.552-.777,1.838-3,3v-2C328.226,250.792,327.431,247.526,327,244Zm7,0h2v4c-2.845.017-.392-0.788-3,1v-3C333.8,244.979,333.355,245.726,334,244Zm7,0c1.4,2.24.545,3.276,0,6h-1v-3C340.752,245.927,340.6,246.054,341,244Zm17,0h7c1.121,2.091,1.434,1.832,2,5-1.476,1.212-1.776,2.608-3,4-1.568-1.829-.882-1.4-4-2a10.925,10.925,0,0,1-2,3V244Zm25,0h2v11h-2V244Zm22,1c0.131,3.474.334,8.032-1,10V245c-2.328-.195-2.826-0.193-4-1,3.09-.094,6.33-0.14,8,1h-3Zm19-1c3.09-.094,6.33-0.14,8,1h-6v4c2.532,0.074,3.716.12,5,1h-5v4c2.72-.007,4.6.039,6,1h-8V244Zm-239,3c0.752,1.073.6,0.946,1,3h-1v-3Zm4,1c0.752,1.073.6,0.946,1,3h-1v-3Zm4,0c1.077,1.737,1.035,2.271,0,4v-4Zm143,0c0.752,1.073.6,0.946,1,3h-1v-3Zm-150,2c2.415,2.061,2.371.045,3,4a2.834,2.834,0,0,0-1,1c-0.8-1.021-.355-0.274-1-2C186.248,251.927,186.4,252.054,186,250Zm10,0c1.207,2.111.483,2.232,0,5h-2v-3C196.467,250.705,194.681,252.429,196,250Zm-76,1c2.067,1.183,1.882.684,3,3h-1v1h-1v-1C120.248,252.927,120.4,253.054,120,251Zm217,0c2.651,1.182,1.794-.9,3,2-0.8,1.021-.355.274-1,2a2.834,2.834,0,0,1-1-1C337.248,252.927,337.4,253.054,337,251Zm-105,1c0.8,1.021.355,0.274,1,2h-1v-2Zm9,1c0.8,1.021.355,0.274,1,2h-1v-2Zm-59,22h49c17.873,40.533-8.359,81.8-52,75l-21-1c-25.574-6.7-59.387-32.114-64-58l27-15v2c4.7,7.023,4.644,18.13,8,26,8.464,19.848,35.789,52.616,69,40,4.028-1.53,7.379-4.89,10-8C232.727,306.654,196.415,289.7,182,275Zm73,0h39v66c44.91,0.746,60.088-5.105,68-42,1.834-8.551-1.555-16.322-2-24h42c1.176,14.531,3.825,32.545-3,44-20.9,35.074-91.285,27.3-147,27C252.847,323.33,254.893,299.846,255,275Z"/>
</svg>
